/* XPM */
static char * breakpoint_off_xpm[] = {
"13 13 16 1",
" 	c None",
".	c #E6E7E8",
"+	c #ECECED",
"@	c #F1F1F2",
"#	c #EEEEEF",
"$	c #F3E3E2",
"%	c #EE887F",
"&	c #EA5345",
"*	c #E94535",
"=	c #F3D8D5",
"-	c #E83E2E",
";	c #EA837A",
">	c #EBCBC8",
",	c #E6D8D8",
"'	c #E84131",
")	c #EFB4AF",
"...+@@@@@+...",
"..#$%&*&%$#..",
".#=-;>,>;-=#.",
"+$').....)'$+",
"@%;.......;%@",
"@&>.......>&@",
"@*,.......,*@",
"@&>.......>&@",
"@%;.......;%@",
"+$').....)-$+",
".#=-;>,>;-=#.",
"..#$%&*&%$#..",
"...+@@@@@+..."};
