/* XPM */
static char * breakpoint_invalid_xpm[] = {
"13 13 61 1",
" 	c None",
".	c #E6E7E8",
"+	c #ECECED",
"@	c #F1F1F2",
"#	c #EEEEEF",
"$	c #F3E3E2",
"%	c #EE8A7F",
"&	c #EA5744",
"*	c #E94934",
"=	c #F3D8D5",
"-	c #F4A47F",
";	c #FCFE8B",
">	c #F9FD4D",
",	c #FCFE3A",
"'	c #F9FD4B",
")	c #FCFE86",
"!	c #F5AE87",
"~	c #F4A682",
"{	c #FEFB65",
"]	c #FBFD68",
"^	c #FCF6C3",
"/	c #FBF8D5",
"(	c #FCF5C5",
"_	c #FBFD6E",
":	c #FFFC60",
"<	c #F5AD83",
"[	c #EE8A80",
"}	c #FAFE69",
"|	c #FCFCD7",
"1	c #FBFCD4",
"2	c #FBFCD3",
"3	c #FAFE73",
"4	c #FCFF85",
"5	c #EE8F81",
"6	c #EA5644",
"7	c #FBFCD2",
"8	c #FCF6C5",
"9	c #F9FD52",
"0	c #EA5D43",
"a	c #E94834",
"b	c #FBF9D5",
"c	c #FCFE43",
"d	c #EA4F33",
"e	c #FCF6C7",
"f	c #F9FC51",
"g	c #FAFE6F",
"h	c #FBFCD7",
"i	c #FBFD77",
"j	c #FCFF81",
"k	c #EE8F80",
"l	c #F5B089",
"m	c #FEFC61",
"n	c #FBFD72",
"o	c #FFFB5C",
"p	c #F6B588",
"q	c #F5AB81",
"r	c #FCFE85",
"s	c #F9FC52",
"t	c #FCFD43",
"u	c #FCFE81",
"v	c #F2D7D5",
"...+@@@@@+...",
"..#$%&*&%$#..",
".#=-;>,')!=#.",
"+$~{]^/(_:<$+",
"@[;}|121|345@",
"@6>^17771890@",
"@a,/27772bcd@",
"@6'(17771ef0@",
"@[)g|121hijk@",
"+$lmn8beiop$+",
".#=qrstfupv#.",
"..#$50d0k$#..",
"...+@@@@@+..."};
