/* XPM */
static char * breakpoint_on_xpm[] = {
"13 13 14 1",
" 	c None",
".	c #E6E7E8",
"+	c #ECECED",
"@	c #F1F1F2",
"#	c #EEEEEF",
"$	c #F3E3E2",
"%	c #EE887F",
"&	c #EA5345",
"*	c #E94535",
"=	c #F3D8D5",
"-	c #E83827",
";	c #E51A07",
">	c #E51501",
",	c #E51400",
"...+@@@@@+...",
"..#$%&*&%$#..",
".#=-;>,>;-=#.",
"+$-,,,,,,,-$+",
"@%;,,,,,,,;%@",
"@&>,,,,,,,>&@",
"@*,,,,,,,,,*@",
"@&>,,,,,,,>&@",
"@%;,,,,,,,;%@",
"+$-,,,,,,,-$+",
".#=-;>,>;-=#.",
"..#$%&*&%$#..",
"...+@@@@@+..."};
