/* XPM */
static char * debugcursor_xpm[] = {
"13 13 21 1",
" 	c None",
".	c #E6E7E8",
"+	c #AFB0B1",
"@	c #4D4D4D",
"#	c #6A6A6A",
"$	c #CFD0D0",
"%	c #DBDCDD",
"&	c #A4A5A5",
"*	c #A08D3D",
"=	c #C0A63C",
"-	c #7C7864",
";	c #D7D7D8",
">	c #6B6240",
",	c #B49D3C",
"'	c #FFD838",
")	c #BEA43C",
"!	c #837D66",
"~	c #C5C6C7",
"{	c #938443",
"]	c #8A8A8B",
"^	c #B59D3C",
".............",
".............",
".....+@#$....",
"..%%%&*=-;...",
"..@>>>,')-$..",
"..@''''''=!~.",
"..@'''''''{].",
"..@''''''=!~.",
"..@>>>^')-$..",
"..%%%&*=-;...",
".....+@#$....",
".............",
"............."};
